<svg width="806" height="200" viewBox="0 0 806 200" xmlns="http://www.w3.org/2000/svg" xmlns:sketch="http://www.bohemiancoding.com/sketch/ns"><title>zenbox-logo-titled</title><desc>Created with Sketch.</desc><path d="M160.565 176.022v-.022h-10.973v.022c-.164-.015-.331-.022-.499-.022-3.03 0-5.486 2.462-5.486 5.5s2.456 5.5 5.486 5.5l.499-.022v.022h10.973v-.022c.164.015.331.022.499.022 3.03 0 5.486-2.462 5.486-5.5s-2.456-5.5-5.486-5.5l-.499.022zm-100.47-12.022c-18.887-6.513-37.869-20.081-51.147-33.921 17.595 11.999 42.021 17.369 63.183 13.866 5.814 6.861 13.731 14.771 22.822 20.055h5.233c-11.717-6.269-21.262-17.163-27.473-25.684-5.063-6.947-7.91-12.316-7.91-12.316s21.893 17.057 54.089 20.962c32.196 3.904 63.62-5.548 63.62-5.548s-21.275 14.636-42.21 22.587h22.259v.027c.33-.018.663-.027.998-.027 9.917 0 17.956 8.059 17.956 18s-8.039 18-17.956 18c-.335 0-.667-.009-.998-.027v.027h-123.693c-9.917 0-17.956-8.059-17.956-18s8.039-18 17.956-18h21.228zm51.596-100.849c8.47-6.376 13.961-16.611 13.961-28.151 0-19.33-15.408-35-34.415-35-12.472 0-23.395 6.748-29.431 16.849 5.718-4.304 12.793-6.849 20.453-6.849 19.007 0 34.415 15.67 34.415 35 0 6.645-1.821 12.858-4.983 18.151zm66.066-2.643c-17.412 27.595-54.052 54.493-88.787 54.493-28.056 0-57.385-14.98-72.88-34.414 17.549 12.497 40.526 17.414 64.014 17.414 27.76 0 70.113-16.738 97.654-37.493zm-40.799 84.47c.289-.46.598-.921.93-1.382 5.333-7.41 11.728-14.035 17.542-20.626-22.935 18.332-48.701 17.543-48.701 17.543l-1.154.088c4.877 1.566 10.606 2.882 17.298 3.706 4.745.584 9.472.774 14.085.671zm130.702-17.37c-.371.62-.742 1.116-2.103 1.116h-17.688l-5.443.496v-.124l4.329-4.464 27.707-37.076c3.34-4.588 0-11.036-5.937-11.036h-30.552c-1.361 0-1.732-.496-2.103-1.116 0 0-1.113-2.232-4.824-2.232-3.834 0-6.308 3.1-6.308 6.572 0 5.456 3.834 9.052 9.401 9.052h20.286l5.443-.248v.124l-4.329 4.216-27.831 37.2c-3.092 4.464-.618 10.912 5.443 10.912h36.242c5.566 0 9.524-3.72 9.524-9.176 0-3.472-2.598-6.448-6.432-6.448-3.711 0-4.824 2.232-4.824 2.232zm73.737-13.02c3.834 0 6.556-2.976 6.556-6.324 0-17.112-12.617-32.364-30.058-32.364-17.812 0-30.8 15.624-30.8 32.984s13.235 32.736 31.418 32.736c8.906 0 14.843-1.364 22.141-5.332 2.474-1.24 3.463-3.72 3.463-5.704 0-3.472-2.721-5.704-6.308-5.704-1.237 0-2.35.372-3.711 1.116-5.566 2.976-9.895 3.844-15.462 3.844-8.535 0-16.575-6.572-18.43-15.252h41.19zm-23.254-26.288c8.782 0 15.585 7.564 16.575 16.74h-34.51c1.237-9.548 9.03-16.74 17.936-16.74zm90.56 43.276c0 5.58 3.834 9.424 9.277 9.424 3.463 0 6.432-2.48 6.432-6.324 0-3.72-2.226-4.836-2.226-4.836-.618-.372-1.113-.744-1.113-2.108v-21.824c0-20.336-8.411-30.008-28.326-30.008-5.937 0-13.73 4.092-17.688 8.928-.495-4.96-4.082-8.308-9.153-8.308-3.463 0-6.432 2.48-6.432 6.324 0 3.72 2.226 4.836 2.226 4.836.618.372 1.113.744 1.113 2.108v37.944c0 1.364-.495 1.736-1.113 2.108 0 0-2.226 1.116-2.226 4.836 0 3.844 2.969 6.324 6.432 6.324 5.443 0 9.277-3.844 9.277-9.424v-27.032c0-8.06 7.298-16.244 16.699-16.244 10.267 0 16.822 6.324 16.822 16.864v26.412zm34.032-81.344c-3.463 0-6.556 2.48-6.556 6.324 0 3.72 2.35 4.836 2.35 4.836.618.372 1.113.744 1.113 2.108v64.232c0 1.364-.495 1.736-1.113 2.108 0 0-2.35 1.24-2.35 4.96 0 3.844 3.092 6.2 6.556 6.2 5.443 0 9.277-3.844 9.277-9.424v-.62c4.948 7.44 12.493 10.044 19.791 10.044 17.317 0 29.81-15.996 29.81-32.612 0-16.864-11.503-31.868-29.81-31.868-5.814 0-14.967 2.852-19.791 10.912v-27.776c0-5.58-3.834-9.424-9.277-9.424zm28.078 38.564c10.019 0 18.307 9.052 18.307 20.212 0 11.284-8.287 20.088-18.307 20.088-10.143 0-18.678-8.804-18.678-20.088 0-10.416 7.422-20.212 18.678-20.212zm74.727 52.824c18.059 0 32.779-14.88 32.779-32.86 0-18.104-14.72-32.86-32.779-32.86-17.936 0-32.779 14.756-32.779 32.86 0 17.98 14.843 32.86 32.779 32.86zm0-53.32c11.256 0 20.409 9.052 20.409 20.46 0 11.284-9.153 20.46-20.409 20.46-11.256 0-20.409-9.176-20.409-20.46 0-11.408 9.153-20.46 20.409-20.46zm70.769 30.256l3.34 5.58 9.524 12.772c1.979 2.604 4.577 4.092 7.422 4.092 3.958 0 8.164-2.728 8.164-6.944 0-3.224-2.103-6.572-5.566-6.448-.742 0-1.237.124-2.103-.992l-13.112-17.856 12.864-17.608c.866-1.116 1.361-1.116 2.103-1.116 3.216 0 5.814-3.1 5.814-6.324 0-4.34-4.453-7.192-8.164-7.192-2.845 0-5.69 1.488-7.669 4.216l-9.153 12.648-3.463 5.58-3.463-5.58-9.153-12.648c-1.979-2.728-4.824-4.216-7.669-4.216-3.711 0-8.164 2.852-8.164 7.192 0 3.224 2.598 6.324 5.814 6.324.742 0 1.237 0 2.103 1.116l12.864 17.608-13.112 17.856c-.866 1.116-1.361.992-2.103.992-3.463-.124-5.566 3.224-5.566 6.448 0 4.216 4.206 6.944 8.164 6.944 2.845 0 5.443-1.488 7.422-4.092l9.524-12.772 3.34-5.58zm54.07 4.216c-4.948 0-9.03 4.092-9.03 9.176 0 4.96 4.082 9.052 9.03 9.052 5.071 0 9.153-4.092 9.153-9.052 0-5.084-4.082-9.176-9.153-9.176zm28.342-35.092c.618.372 1.113.744 1.113 2.108v59.024c0 1.364-.495 1.736-1.113 2.108 0 0-2.226 1.116-2.226 4.836 0 3.844 2.969 6.324 6.432 6.324 5.443 0 9.277-3.844 9.277-9.424v-22.32c4.824 8.06 13.73 10.664 19.544 10.664 18.307 0 29.81-15.004 29.81-31.868 0-18.352-12.493-33.232-29.81-33.232-7.174 0-14.596 2.976-19.544 10.168v-.124c0-5.58-3.834-9.424-9.277-9.424-3.463 0-6.432 2.48-6.432 6.324 0 3.72 2.226 4.836 2.226 4.836zm32.037 40.92c-11.256 0-18.678-9.672-18.678-20.088 0-11.284 8.535-20.088 18.678-20.088 10.019 0 18.307 7.564 18.307 20.088 0 11.16-8.287 20.088-18.307 20.088zm59.389 1.24c-.618-.372-1.113-.744-1.113-2.108v-68.076c0-5.58-3.834-9.424-9.277-9.424-3.463 0-6.432 2.48-6.432 6.324 0 3.72 2.226 4.836 2.226 4.836.618.372 1.113.744 1.113 2.108v68.076c0 5.58 3.834 9.424 9.277 9.424 3.463 0 6.432-2.48 6.432-6.324 0-3.72-2.226-4.836-2.226-4.836z" sketch:type="MSShapeGroup" fill="#000"/></svg>